<?xml version="1.0" standalone="no"?>
<!DOCTYPE svg PUBLIC "-//W3C//DTD SVG 20010904//EN"
 "http://www.w3.org/TR/2001/REC-SVG-20010904/DTD/svg10.dtd">
<svg version="1.0" xmlns="http://www.w3.org/2000/svg"
 width="392.000000pt" height="371.000000pt" viewBox="0 0 392.000000 371.000000"
 preserveAspectRatio="xMidYMid meet">

<g transform="translate(0.000000,371.000000) scale(0.100000,-0.100000)"
fill="#000000" stroke="none">
<path d="M0 1855 l0 -1855 1960 0 1960 0 0 1855 0 1855 -1960 0 -1960 0 0
-1855z m1995 1505 l70 -70 -348 -348 c-191 -191 -347 -352 -347 -357 0 -5 156
-166 347 -357 l348 -348 -73 -72 -72 -73 -376 375 c-206 206 -382 387 -390
402 -17 32 -18 95 -4 135 9 24 755 783 770 783 3 0 37 -32 75 -70z m622 -482
c111 -112 207 -216 213 -231 14 -40 13 -103 -4 -135 -8 -15 -104 -116 -213
-225 l-199 -198 -74 70 -75 69 173 174 c94 96 172 178 172 183 0 5 -77 87
-172 182 l-172 173 69 70 c38 39 72 70 75 70 3 0 96 -91 207 -202z m-1903
-1561 c30 -24 76 -91 76 -112 0 -5 -85 -45 -95 -45 -1 0 -8 14 -16 31 -25 61
-106 71 -143 17 -41 -58 -7 -109 111 -165 145 -69 207 -149 207 -268 0 -80
-21 -130 -76 -181 -66 -61 -87 -69 -173 -69 -69 0 -86 4 -127 28 -26 15 -59
42 -73 61 -29 38 -59 120 -52 140 3 7 26 21 51 29 l46 16 6 -27 c20 -94 69
-142 143 -142 104 0 172 91 142 191 -14 47 -72 96 -161 136 -84 38 -134 83
-156 138 -33 88 -1 173 87 233 29 20 44 23 100 20 54 -3 73 -9 103 -31z m416
-167 l0 -100 48 0 47 0 -3 -50 -4 -50 -44 0 -44 0 0 -210 0 -210 -55 0 -55 0
0 211 0 211 -45 -4 -45 -3 0 57 0 58 45 -7 45 -6 0 102 0 101 55 0 55 0 0
-100z m607 -86 c29 -14 64 -39 78 -56 l26 -31 -163 -164 c-178 -179 -180 -183
-81 -183 63 0 91 10 135 49 l35 31 44 -17 c24 -9 46 -18 48 -20 11 -8 -50 -78
-94 -108 -95 -65 -224 -66 -318 -2 -172 116 -176 363 -7 480 91 62 195 69 297
21z m1222 10 c19 -8 50 -26 69 -41 l34 -26 -188 -189 -189 -189 25 -19 c76
-60 222 -49 297 22 17 15 29 19 50 13 l28 -7 -53 -49 c-60 -55 -107 -72 -198
-72 -108 1 -211 69 -257 172 -28 63 -28 170 0 231 23 51 87 121 133 145 69 36
175 39 249 9z m549 -9 c49 -21 81 -52 103 -100 16 -35 19 -67 19 -237 l0 -198
-25 0 -25 0 0 191 c0 176 -2 194 -21 229 -54 96 -190 107 -262 21 l-27 -33 0
-204 0 -204 -25 0 -25 0 0 260 0 260 25 0 c17 0 25 -6 25 -17 0 -15 1 -15 18
0 50 46 151 60 220 32z m-1060 -21 c-6 -27 -242 -513 -246 -509 -3 3 -60 120
-128 261 l-123 255 31 -3 c30 -3 34 -10 120 -198 49 -107 93 -199 97 -203 4
-4 50 84 101 195 51 112 97 205 101 208 15 11 50 6 47 -6z m454 -682 c10 -9
20 -31 24 -49 5 -26 1 -37 -19 -57 -53 -53 -137 -23 -137 47 0 74 80 110 132
59z m-1732 -2 c11 -11 21 -28 21 -37 5 -67 -22 -93 -92 -93 l-49 0 0 75 0 75
50 0 c37 0 55 -5 70 -20z m318 3 c-2 -13 -14 -19 -41 -21 -47 -4 -49 -22 -2
-22 24 0 35 -5 35 -15 0 -10 -11 -15 -35 -15 -47 0 -45 -18 2 -22 27 -2 39 -8
41 -21 3 -16 -3 -18 -60 -15 l-63 3 -3 73 -3 72 66 0 c58 0 66 -2 63 -17z
m248 -20 l16 -38 15 38 c12 28 21 37 39 37 29 0 29 1 -4 -80 -21 -50 -32 -66
-50 -68 -15 -2 -25 3 -31 20 -5 13 -18 47 -30 76 l-21 52 25 0 c19 0 28 -9 41
-37z m526 20 c36 -32 8 -93 -43 -93 -9 0 -19 -9 -22 -20 -3 -12 -14 -20 -26
-20 -19 0 -21 6 -21 75 l0 75 47 0 c29 0 53 -6 65 -17z m296 5 c15 -15 16 -60
1 -75 -8 -8 -6 -18 6 -37 17 -25 17 -26 -2 -26 -11 0 -28 9 -38 20 -10 11 -22
20 -27 20 -4 0 -8 -9 -8 -20 0 -13 -7 -20 -20 -20 -18 0 -20 7 -20 75 l0 75
48 0 c26 0 53 -5 60 -12z"/>
<path d="M1554 974 c-52 -13 -91 -45 -110 -91 -15 -34 -19 -153 -6 -153 7 0
114 108 206 206 l38 42 -42 4 c-23 2 -61 -1 -86 -8z"/>
<path d="M2745 1021 c-50 -22 -109 -86 -125 -136 -17 -50 -9 -155 14 -190 l18
-28 164 164 c127 127 161 166 151 175 -39 36 -158 44 -222 15z"/>
<path d="M2825 336 c-20 -14 -17 -44 6 -59 24 -15 49 -1 49 27 0 32 -30 50
-55 32z"/>
<path d="M1100 305 c0 -28 4 -35 19 -35 26 0 34 15 27 46 -4 15 -14 24 -26 24
-16 0 -20 -7 -20 -35z"/>
<path d="M2200 325 c0 -8 7 -15 15 -15 8 0 15 7 15 15 0 8 -7 15 -15 15 -8 0
-15 -7 -15 -15z"/>
<path d="M2490 325 c0 -8 9 -15 20 -15 11 0 20 7 20 15 0 8 -9 15 -20 15 -11
0 -20 -7 -20 -15z"/>
</g>
</svg>
